<?xml version="1.0" encoding="utf-8"?>
<!-- Generator: Adobe Illustrator 23.0.1, SVG Export Plug-In . SVG Version: 6.00 Build 0)  -->
<svg version="1.1" id="Layer_1" xmlns="http://www.w3.org/2000/svg" xmlns:xlink="http://www.w3.org/1999/xlink" x="0px" y="0px"
	 viewBox="0 0 258.27 294.79" style="enable-background:new 0 0 258.27 294.79;" xml:space="preserve">
<style type="text/css">
	.st0{clip-path:url(#SVGID_2_);fill:none;stroke:#000000;stroke-width:3;stroke-miterlimit:10;}
	.st1{clip-path:url(#SVGID_2_);}
	.st2{fill:none;stroke:#000000;stroke-width:3;stroke-miterlimit:10;}
	.st3{fill:#FFFFFF;}
	.st4{fill:#FFFFFF;stroke:#000000;stroke-width:2;}
	.st5{clip-path:url(#SVGID_4_);}
	.st6{fill:none;stroke:#000000;stroke-width:2;stroke-miterlimit:10;}
	.st7{clip-path:url(#SVGID_6_);}
	.st8{fill:none;stroke:#000000;stroke-width:2;}
	.st9{fill:#7061AB;}
	.st10{fill:#FFFFFF;stroke:#7061AB;stroke-width:2;}
	.st11{clip-path:url(#SVGID_8_);}
	.st12{fill:none;stroke:#2BB67D;stroke-width:2;stroke-miterlimit:10;}
	.st13{fill:#1F1234;}
	.st14{fill:#FFFFFF;stroke:#1F1234;stroke-width:2;}
	.st15{clip-path:url(#SVGID_10_);}
	.st16{fill:none;stroke:#F26D6D;stroke-width:2;stroke-miterlimit:10;}
	.st17{clip-path:url(#SVGID_12_);}
	.st18{clip-path:url(#SVGID_14_);}
	.st19{clip-path:url(#SVGID_16_);}
	.st20{fill:none;stroke:#000000;stroke-width:0.5;stroke-miterlimit:10;}
	.st21{fill:none;stroke:#000000;stroke-miterlimit:10;}
	.st22{clip-path:url(#SVGID_18_);}
	.st23{clip-path:url(#SVGID_20_);fill:none;stroke:#000000;stroke-width:3;stroke-miterlimit:10;}
	.st24{clip-path:url(#SVGID_20_);}
	.st25{clip-path:url(#SVGID_22_);fill:none;stroke:#000000;stroke-width:3;stroke-miterlimit:10;}
	.st26{clip-path:url(#SVGID_22_);}
	.st27{clip-path:url(#SVGID_24_);fill:none;stroke:#000000;stroke-width:3;stroke-miterlimit:10;}
	.st28{clip-path:url(#SVGID_24_);}
	.st29{clip-path:url(#SVGID_26_);fill:none;stroke:#000000;stroke-width:3;stroke-miterlimit:10;}
	.st30{clip-path:url(#SVGID_26_);}
	.st31{fill:#FFFFFF;stroke:#000000;stroke-miterlimit:10;}
	.st32{clip-path:url(#SVGID_28_);}
	.st33{fill:#67568C;}
	.st34{fill:#D3D1DE;}
	.st35{fill:#010101;}
	.st36{fill:#FFFFFF;stroke:#010101;stroke-width:2;}
	.st37{clip-path:url(#SVGID_30_);}
	.st38{clip-path:url(#SVGID_32_);}
	.st39{fill:#061E1D;}
	.st40{fill:#FFFFFF;stroke:#061E1D;stroke-width:2;}
	.st41{clip-path:url(#SVGID_34_);}
	.st42{fill:none;stroke:#E16162;stroke-width:2;stroke-miterlimit:10;}
	.st43{clip-path:url(#SVGID_36_);}
	.st44{clip-path:url(#SVGID_38_);}
	.st45{fill:none;stroke:#F7BB60;stroke-width:2;stroke-miterlimit:10;}
	.st46{clip-path:url(#SVGID_40_);}
	.st47{clip-path:url(#SVGID_42_);}
	.st48{clip-path:url(#SVGID_44_);}
	.st49{fill:#FFFFFF;stroke:#000000;stroke-width:3;stroke-miterlimit:10;}
	.st50{clip-path:url(#SVGID_46_);}
	.st51{fill:#3953A4;}
	.st52{fill:#FFFFFF;stroke:#3953A4;stroke-width:3;stroke-miterlimit:10;}
	.st53{clip-path:url(#SVGID_48_);}
	.st54{fill:none;stroke:#3953A4;stroke-width:3;stroke-miterlimit:10;}
	.st55{clip-path:url(#SVGID_50_);}
</style>
<g>
	<g>
		<path d="M9.81,22.39h96.37c39.89,0,70.79,7.77,92.69,23.31c21.89,15.54,32.84,37.31,32.84,65.29c0,17.62-5.38,33.03-16.13,46.24
			c-10.75,13.21-25.39,23.39-43.91,30.51c-18.53,7.13-39.06,10.69-61.59,10.69H93.74v91.32H9.81V22.39z M142.32,135.86
			c7.51-5.7,11.27-13.99,11.27-24.87s-3.69-19.04-11.08-24.48c-7.38-5.44-18.07-8.16-32.06-8.16H93.74v65.29
			c5.18,0.52,10.75,0.78,16.71,0.78C124.18,144.41,134.8,141.56,142.32,135.86z"/>
	</g>
	<g>
		<path class="st49" d="M28.1,5.42h96.37c39.89,0,70.79,7.77,92.69,23.31C239.05,44.28,250,66.04,250,94.02
			c0,17.62-5.38,33.03-16.13,46.24c-10.75,13.21-25.39,23.39-43.91,30.51c-18.53,7.13-39.06,10.69-61.59,10.69h-16.32v91.32H28.1
			V5.42z M160.62,118.89c7.51-5.7,11.27-13.99,11.27-24.87s-3.69-19.04-11.08-24.48c-7.38-5.44-18.07-8.16-32.06-8.16h-16.71v65.29
			c5.18,0.52,10.75,0.78,16.71,0.78C142.48,127.44,153.1,124.6,160.62,118.89z"/>
	</g>
	<g>
		<defs>
			<path id="SVGID_49_" d="M28.1,5.42h96.37c39.89,0,70.79,7.77,92.69,23.31C239.05,44.28,250,66.04,250,94.02
				c0,17.62-5.38,33.03-16.13,46.24c-10.75,13.21-25.39,23.39-43.91,30.51c-18.53,7.13-39.06,10.69-61.59,10.69h-16.32v91.32H28.1
				V5.42z M160.62,118.89c7.51-5.7,11.27-13.99,11.27-24.87s-3.69-19.04-11.08-24.48c-7.38-5.44-18.07-8.16-32.06-8.16h-16.71v65.29
				c5.18,0.52,10.75,0.78,16.71,0.78C142.48,127.44,153.1,124.6,160.62,118.89z"/>
		</defs>
		<clipPath id="SVGID_2_">
			<use xlink:href="#SVGID_49_"  style="overflow:visible;"/>
		</clipPath>
		<g class="st1">
			<g>
				<line class="st2" x1="-72.78" y1="238.34" x2="53.79" y2="313.26"/>
				<line class="st2" x1="-65.35" y1="225.13" x2="61.22" y2="300.06"/>
				<line class="st2" x1="-57.91" y1="211.92" x2="68.66" y2="286.85"/>
				<line class="st2" x1="-50.48" y1="198.72" x2="131.24" y2="305.48"/>
				<line class="st2" x1="-43.05" y1="185.51" x2="138.68" y2="292.28"/>
				<line class="st2" x1="-35.61" y1="172.31" x2="146.11" y2="279.07"/>
				<line class="st2" x1="-28.18" y1="159.1" x2="153.54" y2="265.87"/>
				<line class="st2" x1="-20.74" y1="145.9" x2="123.66" y2="231.12"/>
				<line class="st2" x1="-13.31" y1="132.69" x2="131.09" y2="217.91"/>
				<line class="st2" x1="11.96" y1="129.78" x2="204.16" y2="242.6"/>
				<line class="st2" x1="-39.7" y1="82.46" x2="193.76" y2="219.1"/>
				<line class="st2" x1="-32.27" y1="69.25" x2="201.2" y2="205.89"/>
				<line class="st2" x1="-24.83" y1="56.05" x2="208.63" y2="192.69"/>
			</g>
			<g>
				<line class="st2" x1="-42.72" y1="28.18" x2="216.99" y2="179.97"/>
				<line class="st2" x1="-35.29" y1="14.97" x2="224.42" y2="166.76"/>
				<line class="st2" x1="-27.85" y1="1.77" x2="231.85" y2="153.56"/>
				<line class="st2" x1="20.84" y1="12.38" x2="239.29" y2="140.35"/>
				<line class="st2" x1="28.27" y1="-0.83" x2="246.72" y2="127.15"/>
				<line class="st2" x1="35.7" y1="-14.03" x2="254.15" y2="113.94"/>
				<line class="st2" x1="43.14" y1="-27.24" x2="261.59" y2="100.73"/>
				<line class="st2" x1="50.57" y1="-40.44" x2="269.02" y2="87.53"/>
				<line class="st2" x1="58.01" y1="-53.65" x2="278.68" y2="75.61"/>
				<line class="st2" x1="91.69" y1="-51.7" x2="283.89" y2="61.12"/>
				<line class="st2" x1="99.12" y1="-64.91" x2="291.32" y2="47.91"/>
				<line class="st2" x1="106.55" y1="-78.11" x2="298.76" y2="34.71"/>
				<line class="st2" x1="113.99" y1="-91.32" x2="306.19" y2="21.5"/>
			</g>
		</g>
	</g>
</g>
</svg>
