<?xml version="1.0" encoding="utf-8"?>
<!-- Generator: Adobe Illustrator 23.0.1, SVG Export Plug-In . SVG Version: 6.00 Build 0)  -->
<svg version="1.1" id="Layer_1" xmlns="http://www.w3.org/2000/svg" xmlns:xlink="http://www.w3.org/1999/xlink" x="0px" y="0px"
	 viewBox="0 0 258.27 294.79" style="enable-background:new 0 0 258.27 294.79;" xml:space="preserve">
<style type="text/css">
	.st0{clip-path:url(#SVGID_2_);fill:none;stroke:#000000;stroke-width:3;stroke-miterlimit:10;}
	.st1{clip-path:url(#SVGID_2_);}
	.st2{fill:none;stroke:#000000;stroke-width:3;stroke-miterlimit:10;}
	.st3{fill:#FFFFFF;}
	.st4{fill:#FFFFFF;stroke:#000000;stroke-width:2;}
	.st5{clip-path:url(#SVGID_4_);}
	.st6{fill:none;stroke:#000000;stroke-width:2;stroke-miterlimit:10;}
	.st7{clip-path:url(#SVGID_6_);}
	.st8{fill:none;stroke:#000000;stroke-width:2;}
	.st9{fill:#7061AB;}
	.st10{fill:#FFFFFF;stroke:#7061AB;stroke-width:2;}
	.st11{clip-path:url(#SVGID_8_);}
	.st12{fill:none;stroke:#2BB67D;stroke-width:2;stroke-miterlimit:10;}
	.st13{fill:#1F1234;}
	.st14{fill:#FFFFFF;stroke:#1F1234;stroke-width:2;}
	.st15{clip-path:url(#SVGID_10_);}
	.st16{fill:none;stroke:#F26D6D;stroke-width:2;stroke-miterlimit:10;}
	.st17{clip-path:url(#SVGID_12_);}
	.st18{clip-path:url(#SVGID_14_);}
	.st19{clip-path:url(#SVGID_16_);}
	.st20{fill:none;stroke:#000000;stroke-width:0.5;stroke-miterlimit:10;}
	.st21{fill:none;stroke:#000000;stroke-miterlimit:10;}
	.st22{clip-path:url(#SVGID_18_);}
	.st23{clip-path:url(#SVGID_20_);fill:none;stroke:#000000;stroke-width:3;stroke-miterlimit:10;}
	.st24{clip-path:url(#SVGID_20_);}
	.st25{clip-path:url(#SVGID_22_);fill:none;stroke:#000000;stroke-width:3;stroke-miterlimit:10;}
	.st26{clip-path:url(#SVGID_22_);}
	.st27{clip-path:url(#SVGID_24_);fill:none;stroke:#000000;stroke-width:3;stroke-miterlimit:10;}
	.st28{clip-path:url(#SVGID_24_);}
	.st29{clip-path:url(#SVGID_26_);fill:none;stroke:#000000;stroke-width:3;stroke-miterlimit:10;}
	.st30{clip-path:url(#SVGID_26_);}
	.st31{fill:#FFFFFF;stroke:#000000;stroke-miterlimit:10;}
	.st32{clip-path:url(#SVGID_28_);}
	.st33{fill:#67568C;}
	.st34{fill:#D3D1DE;}
	.st35{fill:#010101;}
	.st36{fill:#FFFFFF;stroke:#010101;stroke-width:2;}
	.st37{clip-path:url(#SVGID_30_);}
	.st38{clip-path:url(#SVGID_32_);}
	.st39{fill:#061E1D;}
	.st40{fill:#FFFFFF;stroke:#061E1D;stroke-width:2;}
	.st41{clip-path:url(#SVGID_34_);}
	.st42{fill:none;stroke:#E16162;stroke-width:2;stroke-miterlimit:10;}
	.st43{clip-path:url(#SVGID_36_);}
	.st44{clip-path:url(#SVGID_38_);}
	.st45{fill:none;stroke:#F7BB60;stroke-width:2;stroke-miterlimit:10;}
	.st46{clip-path:url(#SVGID_40_);}
	.st47{clip-path:url(#SVGID_42_);}
	.st48{clip-path:url(#SVGID_44_);}
	.st49{fill:#FFFFFF;stroke:#000000;stroke-width:3;stroke-miterlimit:10;}
	.st50{clip-path:url(#SVGID_46_);}
	.st51{fill:#3953A4;}
	.st52{fill:#FFFFFF;stroke:#3953A4;stroke-width:3;stroke-miterlimit:10;}
	.st53{clip-path:url(#SVGID_48_);}
	.st54{fill:none;stroke:#3953A4;stroke-width:3;stroke-miterlimit:10;}
	.st55{fill:#FFFFFF;stroke:#000000;stroke-width:2;stroke-miterlimit:10;}
	.st56{clip-path:url(#SVGID_50_);}
	.st57{fill:#FFFFFF;stroke:#000000;stroke-width:4;stroke-miterlimit:10;}
	.st58{clip-path:url(#SVGID_52_);}
	.st59{fill:none;stroke:#000000;stroke-width:4;stroke-miterlimit:10;}
</style>
<g>
	<g>
		<path d="M9.04,22.39h96.37c39.89,0,70.79,7.77,92.69,23.31c21.89,15.54,32.84,37.31,32.84,65.29c0,17.62-5.38,33.03-16.13,46.24
			c-10.75,13.21-25.39,23.39-43.91,30.51c-18.53,7.13-39.06,10.69-61.59,10.69H92.97v91.32H9.04V22.39z M141.55,135.86
			c7.51-5.7,11.27-13.99,11.27-24.87s-3.69-19.04-11.08-24.48c-7.38-5.44-18.07-8.16-32.06-8.16H92.97v65.29
			c5.18,0.52,10.75,0.78,16.71,0.78C123.42,144.41,134.04,141.56,141.55,135.86z"/>
	</g>
	<g>
		<path class="st57" d="M27.34,5.42h96.37c39.89,0,70.79,7.77,92.69,23.31c21.89,15.54,32.84,37.31,32.84,65.29
			c0,17.62-5.38,33.03-16.13,46.24c-10.75,13.21-25.39,23.39-43.91,30.51c-18.53,7.13-39.06,10.69-61.59,10.69h-16.32v91.32H27.34
			V5.42z M159.85,118.89c7.51-5.7,11.27-13.99,11.27-24.87s-3.69-19.04-11.08-24.48c-7.38-5.44-18.07-8.16-32.06-8.16h-16.71v65.29
			c5.18,0.52,10.75,0.78,16.71,0.78C141.71,127.44,152.33,124.6,159.85,118.89z"/>
	</g>
	<g>
		<defs>
			<path id="SVGID_51_" d="M27.34,5.42h96.37c39.89,0,70.79,7.77,92.69,23.31c21.89,15.54,32.84,37.31,32.84,65.29
				c0,17.62-5.38,33.03-16.13,46.24c-10.75,13.21-25.39,23.39-43.91,30.51c-18.53,7.13-39.06,10.69-61.59,10.69h-16.32v91.32H27.34
				V5.42z M159.85,118.89c7.51-5.7,11.27-13.99,11.27-24.87s-3.69-19.04-11.08-24.48c-7.38-5.44-18.07-8.16-32.06-8.16h-16.71v65.29
				c5.18,0.52,10.75,0.78,16.71,0.78C141.71,127.44,152.33,124.6,159.85,118.89z"/>
		</defs>
		<clipPath id="SVGID_2_">
			<use xlink:href="#SVGID_51_"  style="overflow:visible;"/>
		</clipPath>
		<g class="st1">
			<line class="st59" x1="-106.42" y1="135.25" x2="69.73" y2="315.28"/>
			<line class="st59" x1="-88.27" y1="116.7" x2="87.88" y2="296.73"/>
			<line class="st59" x1="-70.12" y1="98.16" x2="106.02" y2="278.18"/>
			<line class="st59" x1="-51.97" y1="79.61" x2="124.17" y2="259.63"/>
			<line class="st59" x1="-33.83" y1="61.06" x2="142.32" y2="241.08"/>
			<line class="st59" x1="-15.68" y1="42.51" x2="160.47" y2="222.54"/>
			<line class="st59" x1="2.47" y1="23.96" x2="178.62" y2="203.99"/>
			<line class="st59" x1="20.62" y1="5.42" x2="196.77" y2="185.44"/>
			<line class="st59" x1="38.77" y1="-13.13" x2="214.91" y2="166.89"/>
			<line class="st59" x1="56.92" y1="-31.68" x2="233.06" y2="148.34"/>
			<line class="st59" x1="75.06" y1="-50.23" x2="251.21" y2="129.8"/>
			<line class="st59" x1="93.21" y1="-68.78" x2="269.36" y2="111.25"/>
			<line class="st59" x1="111.36" y1="-87.32" x2="287.51" y2="92.7"/>
		</g>
	</g>
</g>
</svg>
